<?xml version="1.0" encoding="UTF-8"?>
<svg xmlns="http://www.w3.org/2000/svg" xmlns:xlink="http://www.w3.org/1999/xlink" width="96px" height="px" viewBox="0 0 96 96" version="1.1">
<g id="surface1">
<path style=" stroke:none;fill-rule:nonzero;fill:rgb(97.647059%,97.647059%,97.647059%);fill-opacity:1;" d="M 34.328125 60.460938 L 29.429688 46.550781 L 47.53125 27.015625 L 67.25 44.585938 L 61.058594 62.378906 L 63.386719 69.496094 L 32.539062 69.085938 Z M 34.328125 60.460938 "/>
<path style=" stroke:none;fill-rule:nonzero;fill:rgb(6.27451%,6.27451%,6.27451%);fill-opacity:1;" d="M 36 63.984375 C 35.84375 65.203125 35.4375 66.484375 34.78125 67.828125 L 61.21875 67.828125 C 60.65625 66.703125 60.25 65.421875 60 63.984375 Z M 59.203125 60.5625 L 61.359375 57.140625 C 56.921875 55.609375 52.46875 54.875 48 54.9375 C 43.5 54.875 39.046875 55.609375 34.640625 57.140625 L 36.796875 60.5625 C 40.484375 59.3125 44.21875 58.71875 48 58.78125 C 51.75 58.71875 55.484375 59.3125 59.203125 60.5625 Z M 38.953125 71.203125 L 29.25 71.203125 C 31.34375 67.578125 32.46875 64 32.625 60.46875 C 29.0625 56.75 26.53125 53.257812 25.03125 49.992188 C 23.53125 46.726562 23.4375 43.234375 24.75 39.515625 C 25.78125 36.515625 27.625 33.554688 30.28125 30.632812 C 32.9375 27.710938 37.8125 23.859375 44.90625 19.078125 C 44.375 18.734375 43.65625 18.171875 42.75 17.390625 C 41.84375 16.609375 41.390625 15.375 41.390625 13.6875 C 41.390625 11.875 42.03125 10.375 43.3125 9.1875 C 44.59375 8 46.15625 7.40625 48 7.40625 C 49.8125 7.40625 51.367188 8 52.664062 9.1875 C 53.960938 10.375 54.609375 11.875 54.609375 13.6875 C 54.609375 15.375 54.148438 16.609375 53.226562 17.390625 C 52.304688 18.171875 51.59375 18.734375 51.09375 19.078125 C 58.15625 23.859375 63.015625 27.710938 65.671875 30.632812 C 68.328125 33.554688 70.1875 36.515625 71.25 39.515625 C 72.5625 43.234375 72.46875 46.726562 70.96875 49.992188 C 69.46875 53.257812 66.9375 56.75 63.375 60.46875 C 63.5 64 64.625 67.578125 66.75 71.203125 L 57.046875 71.203125 C 56.984375 71.078125 57.140625 71.328125 57.515625 71.953125 C 58.546875 73.609375 59.640625 74.546875 60.796875 74.765625 C 61.953125 74.984375 63.34375 75.09375 64.96875 75.09375 L 76.6875 75.09375 C 79.0625 75.09375 81.273438 76.0625 83.320312 78 C 85.367188 79.9375 86.390625 82.734375 86.390625 86.390625 L 63.1875 86.390625 C 59.34375 86.390625 55.851562 85.070312 52.710938 82.429688 C 49.570312 79.789062 48 76.6875 48 73.125 C 48 76.6875 46.421875 79.789062 43.265625 82.429688 C 40.109375 85.070312 36.625 86.390625 32.8125 86.390625 L 9.609375 86.390625 C 9.609375 82.734375 10.625 79.9375 12.65625 78 C 14.6875 76.0625 16.90625 75.09375 19.3125 75.09375 L 31.03125 75.09375 C 32.625 75.09375 34 74.984375 35.15625 74.765625 C 36.3125 74.546875 37.421875 73.609375 38.484375 71.953125 C 38.859375 71.328125 39.015625 71.078125 38.953125 71.203125 Z M 45.796875 38.34375 L 41.34375 38.34375 L 41.34375 42.515625 L 45.796875 42.515625 L 45.796875 50.25 L 50.203125 50.25 L 50.203125 42.515625 L 54.65625 42.515625 L 54.65625 38.34375 L 50.203125 38.34375 L 50.203125 33.46875 L 45.796875 33.46875 Z M 45.796875 38.34375 "/>
</g>
</svg>
