<?xml version="1.0" encoding="UTF-8"?>
<svg xmlns="http://www.w3.org/2000/svg" xmlns:xlink="http://www.w3.org/1999/xlink" width="96px" height="px" viewBox="0 0 96 96" version="1.1">
<g id="surface1">
<path style=" stroke:none;fill-rule:nonzero;fill:rgb(97.647059%,97.647059%,97.647059%);fill-opacity:1;" d="M 25.9375 69.609375 L 23.359375 84.609375 L 72.453125 84.84375 L 70.234375 69.140625 C 70.234375 69.140625 85.390625 54.453125 85.703125 47.265625 C 86.015625 40.078125 84.058594 31.75 74.375 28.203125 C 65.835938 25.074219 56.953125 33.90625 56.953125 33.90625 L 48.4375 26.328125 L 39.53125 33.828125 C 39.53125 33.828125 30.855469 27.457031 27.5 27.734375 C 15.15625 28.75 11.015625 38.046875 10.546875 43.359375 C 11.023438 58.886719 25.9375 69.609375 25.9375 69.609375 Z M 25.9375 69.609375 "/>
<path style=" stroke:none;fill-rule:nonzero;fill:rgb(6.27451%,6.27451%,6.27451%);fill-opacity:1;" d="M 48 82.921875 L 70.921875 82.921875 L 70.359375 79.5 L 25.640625 79.5 L 25.078125 82.921875 Z M 48 39.75 C 47.21875 37.875 46.25 36.140625 45.09375 34.546875 C 46.0625 33.046875 47.03125 32.03125 48 31.5 C 48.9375 32.03125 49.90625 33.046875 50.90625 34.546875 C 49.71875 36.140625 48.75 37.875 48 39.75 Z M 43.453125 61.03125 C 38.640625 61.375 33.90625 62.28125 29.25 63.75 C 25.40625 60.375 22.28125 57.039062 19.875 53.742188 C 17.46875 50.445312 16.265625 47.296875 16.265625 44.296875 C 16.265625 41.515625 17.414062 39.03125 19.710938 36.84375 C 22.007812 34.65625 24.328125 33.5625 26.671875 33.5625 C 28.765625 33.5625 30.867188 34.539062 32.976562 36.492188 C 35.085938 38.445312 36.6875 40.484375 37.78125 42.609375 C 38.71875 44.296875 39.890625 47.03125 41.296875 50.8125 C 42.703125 54.59375 43.421875 58 43.453125 61.03125 Z M 27.046875 71.203125 L 25.828125 78.515625 L 32.625 74.578125 Z M 48 28.6875 C 46.53125 28.6875 44.40625 30.578125 41.625 34.359375 C 40.65625 33.234375 39.875 32.375 39.28125 31.78125 C 42.1875 27.40625 45.09375 25.21875 48 25.21875 C 50.875 25.21875 53.78125 27.40625 56.71875 31.78125 C 56.09375 32.375 55.3125 33.234375 54.375 34.359375 C 51.5625 30.578125 49.4375 28.6875 48 28.6875 Z M 48 65.015625 C 47.96875 61.078125 47.3125 56.898438 46.03125 52.476562 C 44.75 48.054688 43.4375 44.515625 42.09375 41.859375 C 41.84375 41.421875 41.625 41 41.4375 40.59375 C 41.25 40.1875 41.0625 39.828125 40.875 39.515625 C 40 38.171875 39.25 37.09375 38.625 36.28125 C 37.03125 34.3125 35.15625 32.671875 33 31.359375 C 30.84375 30.046875 28.75 29.390625 26.71875 29.390625 C 23.5 29.390625 20.25 30.84375 16.96875 33.75 C 13.6875 36.65625 12.046875 40.234375 12.046875 44.484375 C 12.046875 48.234375 13.59375 52.210938 16.6875 56.414062 C 19.78125 60.617188 23.671875 64.671875 28.359375 68.578125 C 34.640625 66.265625 41.1875 65.078125 48 65.015625 Z M 48 86.390625 L 21 86.390625 L 23.859375 69.28125 C 13.703125 60.53125 8.609375 52.171875 8.578125 44.203125 C 8.546875 39.234375 10.5 34.945312 14.4375 31.335938 C 18.375 27.726562 22.546875 25.921875 26.953125 25.921875 C 29.390625 25.921875 31.867188 26.65625 34.382812 28.125 C 36.898438 29.59375 39.125 31.453125 41.0625 33.703125 C 42.96875 36.015625 44.507812 38.585938 45.679688 41.414062 C 46.851562 44.242188 47.625 46.59375 48 48.46875 C 48.375 46.59375 49.140625 44.242188 50.296875 41.414062 C 51.453125 38.585938 53 36.015625 54.9375 33.703125 C 56.84375 31.453125 59.0625 29.59375 61.59375 28.125 C 64.125 26.65625 66.609375 25.921875 69.046875 25.921875 C 73.421875 25.921875 77.578125 27.726562 81.515625 31.335938 C 85.453125 34.945312 87.421875 39.234375 87.421875 44.203125 C 87.359375 52.171875 82.265625 60.53125 72.140625 69.28125 L 75 86.390625 Z M 52.546875 61.03125 C 52.546875 58 53.25 54.59375 54.65625 50.8125 C 56.0625 47.03125 57.25 44.296875 58.21875 42.609375 C 59.28125 40.484375 60.867188 38.445312 62.976562 36.492188 C 65.085938 34.539062 67.203125 33.5625 69.328125 33.5625 C 71.640625 33.5625 73.945312 34.65625 76.242188 36.84375 C 78.539062 39.03125 79.703125 41.515625 79.734375 44.296875 C 79.734375 47.296875 78.53125 50.445312 76.125 53.742188 C 73.71875 57.039062 70.59375 60.375 66.75 63.75 C 62.0625 62.28125 57.328125 61.375 52.546875 61.03125 Z M 68.953125 71.203125 L 63.375 74.578125 L 70.171875 78.515625 Z M 48 65.015625 C 54.78125 65.078125 61.328125 66.265625 67.640625 68.578125 C 72.328125 64.671875 76.21875 60.617188 79.3125 56.414062 C 82.40625 52.210938 83.953125 48.234375 83.953125 44.484375 C 83.953125 40.234375 82.304688 36.65625 79.007812 33.75 C 75.710938 30.84375 72.46875 29.390625 69.28125 29.390625 C 67.21875 29.390625 65.109375 30.046875 62.953125 31.359375 C 60.796875 32.671875 58.9375 34.3125 57.375 36.28125 C 56.71875 37.09375 55.96875 38.171875 55.125 39.515625 C 54.9375 39.828125 54.742188 40.1875 54.539062 40.59375 L 53.90625 41.859375 C 52.53125 44.515625 51.203125 48.054688 49.921875 52.476562 C 48.640625 56.898438 48 61.078125 48 65.015625 Z M 41.484375 72.46875 L 48 76.5 L 54.515625 72.5625 L 48 68.53125 Z M 45.796875 13.96875 L 45.796875 9.515625 L 50.203125 9.515625 L 50.203125 13.96875 L 55.21875 13.96875 L 55.21875 18.421875 L 50.203125 18.421875 L 50.203125 25.59375 C 48.703125 25.09375 47.234375 25.09375 45.796875 25.59375 L 45.796875 18.421875 L 40.78125 18.421875 L 40.78125 13.96875 Z M 45.796875 13.96875 "/>
</g>
</svg>
