<?xml version="1.0" encoding="UTF-8"?>
<svg xmlns="http://www.w3.org/2000/svg" xmlns:xlink="http://www.w3.org/1999/xlink" width="96px" height="px" viewBox="0 0 96 96" version="1.1">
<g id="surface1">
<path style=" stroke:none;fill-rule:nonzero;fill:rgb(97.647059%,97.647059%,97.647059%);fill-opacity:1;" d="M 77.734375 84.65625 C 58.578125 70.546875 74.378906 41.53125 56.542969 21.722656 L 59.339844 20.960938 C 59.339844 20.960938 73.222656 28.78125 74.324219 32.992188 C 82.878906 54.949219 76.28125 65.390625 80.683594 83.472656 Z M 45.554688 24.511719 L 51.199219 32.75 L 36.582031 32.625 Z M 23.355469 46.003906 L 19 44.070312 L 20.945312 39.679688 L 26.914062 40.996094 Z M 23.355469 46.003906 "/>
<path style=" stroke:none;fill-rule:nonzero;fill:rgb(6.27451%,6.27451%,6.27451%);fill-opacity:1;" d="M 23.53125 40.6875 L 21.09375 40.734375 L 19.875 43.734375 L 23.109375 44.71875 L 25.265625 42.140625 Z M 48.65625 31.921875 C 49.71875 31.953125 49.46875 30.890625 47.90625 28.734375 C 46.34375 26.578125 45.09375 25.921875 44.15625 26.765625 L 38.71875 31.875 Z M 32.8125 27.328125 C 33 26.109375 34.804688 24.429688 38.226562 22.289062 C 41.648438 20.148438 45.09375 17.90625 48.5625 15.5625 L 53.953125 8.34375 L 58.453125 18.515625 C 69.140625 23.890625 75.898438 30.414062 78.726562 38.085938 C 81.554688 45.757812 82.296875 55.1875 80.953125 66.375 C 80.390625 70.375 80.460938 74.0625 81.164062 77.4375 C 81.867188 80.8125 82.765625 83.78125 83.859375 86.34375 L 25.640625 86.390625 C 25.359375 80.828125 25.96875 76.117188 27.46875 72.257812 C 28.96875 68.398438 31.828125 64.6875 36.046875 61.125 C 37.609375 60.78125 38.898438 60.164062 39.914062 59.273438 C 40.929688 58.382812 41.765625 57.46875 42.421875 56.53125 L 45.351562 56.484375 L 51.820312 55.125 L 58.335938 50.578125 L 61.453125 40.875 C 61.453125 40.34375 61.320312 39.8125 61.054688 39.28125 C 60.789062 38.75 60.609375 38.171875 60.515625 37.546875 C 58.578125 44.671875 56.0625 49.179688 52.96875 51.070312 C 49.875 52.960938 46.890625 53.875 44.015625 53.8125 C 36.640625 52.5 32.078125 53.4375 30.328125 56.625 L 27.703125 61.40625 L 17.53125 55.734375 L 22.921875 51.890625 L 20.53125 49.546875 L 14.8125 53.578125 L 14.25 39.65625 Z M 78.796875 83.203125 C 75.609375 79.140625 74.28125 74.320312 74.8125 68.742188 C 75.34375 63.164062 75.765625 57.5 76.078125 51.75 C 76.390625 46 75.609375 40.507812 73.734375 35.273438 C 71.859375 30.039062 66.921875 25.734375 58.921875 22.359375 C 65.796875 27.484375 69.742188 32.828125 70.757812 38.390625 C 71.773438 43.953125 72.03125 49.429688 71.53125 54.820312 C 71.03125 60.210938 70.84375 65.351562 70.96875 70.242188 C 71.09375 75.132812 73.703125 79.453125 78.796875 83.203125 Z M 78.796875 83.203125 "/>
</g>
</svg>
