<?xml version="1.0" encoding="UTF-8"?>
<svg xmlns="http://www.w3.org/2000/svg" xmlns:xlink="http://www.w3.org/1999/xlink" width="96px" height="px" viewBox="0 0 96 96" version="1.1">
<g id="surface1">
<path style=" stroke:none;fill-rule:nonzero;fill:rgb(6.27451%,6.27451%,6.27451%);fill-opacity:1;" d="M 48 86.390625 L 20.90625 86.390625 L 20.90625 82.921875 C 20.78125 80.421875 21.429688 78.28125 22.851562 76.5 C 24.273438 74.71875 26.234375 73.03125 28.734375 71.4375 C 32.390625 68.59375 35.070312 65.195312 36.773438 61.242188 C 38.476562 57.289062 39.703125 53.109375 40.453125 48.703125 L 27 48.703125 L 40.3125 37.5 C 37.625 35.1875 36.28125 32.25 36.28125 28.6875 C 36.28125 25.46875 37.421875 22.703125 39.703125 20.390625 C 41.984375 18.078125 44.75 16.921875 48 16.921875 C 51.21875 16.921875 53.976562 18.078125 56.273438 20.390625 C 58.570312 22.703125 59.71875 25.46875 59.71875 28.6875 C 59.71875 32.25 58.375 35.1875 55.6875 37.5 L 69 48.703125 L 55.546875 48.703125 C 56.265625 53.109375 57.484375 57.289062 59.203125 61.242188 C 60.921875 65.195312 63.609375 68.59375 67.265625 71.4375 C 69.734375 73.03125 71.679688 74.71875 73.101562 76.5 C 74.523438 78.28125 75.1875 80.421875 75.09375 82.921875 L 75.09375 86.390625 Z M 48 86.390625 "/>
</g>
</svg>
