<?xml version="1.0" encoding="UTF-8"?>
<svg xmlns="http://www.w3.org/2000/svg" xmlns:xlink="http://www.w3.org/1999/xlink" width="96px" height="px" viewBox="0 0 96 96" version="1.1">
<g id="surface1">
<path style=" stroke:none;fill-rule:nonzero;fill:rgb(97.647059%,97.647059%,97.647059%);fill-opacity:1;" d="M 24.378906 84.457031 L 26.320312 63.425781 L 48.539062 57.382812 L 70.003906 63.640625 L 71.621094 84.566406 Z M 24.378906 84.457031 "/>
<path style=" stroke:none;fill-rule:nonzero;fill:rgb(6.27451%,6.27451%,6.27451%);fill-opacity:1;" d="M 27.65625 71.203125 C 27.78125 73.453125 27.546875 75.921875 26.953125 78.609375 L 33.234375 74.578125 Z M 48 86.390625 L 20.671875 86.390625 C 24.234375 79.171875 25.132812 72.039062 23.367188 64.992188 C 21.601562 57.945312 18.4375 50.921875 13.875 43.921875 C 13.5 43.984375 13.203125 44.015625 12.984375 44.015625 C 11.296875 44.015625 9.851562 43.414062 8.648438 42.210938 C 7.445312 41.007812 6.84375 39.5625 6.84375 37.875 C 6.84375 36.1875 7.445312 34.742188 8.648438 33.539062 C 9.851562 32.335938 11.296875 31.734375 12.984375 31.734375 C 14.671875 31.734375 16.117188 32.335938 17.320312 33.539062 C 18.523438 34.742188 19.125 36.1875 19.125 37.875 C 19.125 38.5 19.03125 39.09375 18.84375 39.65625 C 18.71875 40.09375 18.484375 40.609375 18.140625 41.203125 L 27.328125 47.71875 L 32.015625 24.9375 C 30.015625 23.96875 28.890625 22.359375 28.640625 20.109375 C 28.484375 18.734375 28.9375 17.3125 30 15.84375 C 31.0625 14.375 32.4375 13.546875 34.125 13.359375 C 35.8125 13.203125 37.3125 13.65625 38.625 14.71875 C 39.9375 15.78125 40.6875 17.15625 40.875 18.84375 C 41.09375 20.96875 40.375 22.75 38.71875 24.1875 L 48 43.5 L 57.28125 24.1875 C 55.59375 22.75 54.875 20.96875 55.125 18.84375 C 55.3125 17.15625 56.0625 15.78125 57.375 14.71875 C 58.6875 13.65625 60.1875 13.203125 61.875 13.359375 C 63.5625 13.546875 64.929688 14.375 65.976562 15.84375 C 67.023438 17.3125 67.484375 18.734375 67.359375 20.109375 C 67.078125 22.359375 65.953125 23.96875 63.984375 24.9375 L 68.671875 47.71875 L 77.859375 41.203125 C 77.484375 40.609375 77.25 40.09375 77.15625 39.65625 C 76.96875 39.09375 76.875 38.5 76.875 37.875 C 76.875 36.1875 77.476562 34.742188 78.679688 33.539062 C 79.882812 32.335938 81.328125 31.734375 83.015625 31.734375 C 84.703125 31.734375 86.148438 32.335938 87.351562 33.539062 C 88.554688 34.742188 89.15625 36.1875 89.15625 37.875 C 89.15625 39.5625 88.554688 41.007812 87.351562 42.210938 C 86.148438 43.414062 84.703125 44.015625 83.015625 44.015625 C 82.796875 44.015625 82.5 43.984375 82.125 43.921875 C 77.53125 50.921875 74.359375 57.945312 72.609375 64.992188 C 70.859375 72.039062 71.765625 79.171875 75.328125 86.390625 Z M 48 65.296875 C 51.40625 65.296875 54.875 65.742188 58.40625 66.632812 C 61.9375 67.523438 65.265625 68.578125 68.390625 69.796875 C 68.453125 68.515625 68.625 67.125 68.90625 65.625 C 65.53125 64.3125 62.070312 63.25 58.523438 62.4375 C 54.976562 61.625 51.46875 61.21875 48 61.21875 C 44.53125 61.21875 41.015625 61.625 37.453125 62.4375 C 33.890625 63.25 30.4375 64.3125 27.09375 65.625 C 27.34375 67.125 27.515625 68.515625 27.609375 69.796875 C 30.703125 68.578125 34.015625 67.523438 37.546875 66.632812 C 41.078125 65.742188 44.5625 65.296875 48 65.296875 Z M 48 82.921875 L 70.40625 82.921875 C 69.9375 81.859375 69.5625 80.71875 69.28125 79.5 L 26.71875 79.5 C 26.40625 80.71875 26.03125 81.859375 25.59375 82.921875 Z M 68.34375 71.203125 L 62.765625 74.578125 L 69.046875 78.609375 C 68.421875 75.921875 68.1875 73.453125 68.34375 71.203125 Z M 41.484375 73.40625 L 48 77.484375 L 54.515625 73.546875 L 48 69.515625 Z M 41.484375 73.40625 "/>
</g>
</svg>
