<?xml version="1.0" encoding="UTF-8"?>
<svg xmlns="http://www.w3.org/2000/svg" xmlns:xlink="http://www.w3.org/1999/xlink" width="96px" height="px" viewBox="0 0 96 96" version="1.1">
<g id="surface1">
<path style=" stroke:none;fill-rule:nonzero;fill:rgb(97.647059%,97.647059%,97.647059%);fill-opacity:1;" d="M 31.59375 34.300781 L 28.046875 72.160156 L 67.921875 72.808594 L 64.402344 33.761719 Z M 31.59375 34.300781 "/>
<path style=" stroke:none;fill-rule:nonzero;fill:rgb(6.27451%,6.27451%,6.27451%);fill-opacity:1;" d="M 48 86.390625 L 17.953125 86.390625 L 19.3125 74.015625 L 26.765625 68.484375 L 29.109375 37.59375 L 22.125 32.578125 L 21.328125 16.59375 L 34.875 16.59375 L 34.875 23.484375 L 41.296875 23.484375 L 41.296875 16.59375 L 54.703125 16.59375 L 54.703125 23.484375 L 61.125 23.484375 L 61.125 16.59375 L 74.671875 16.59375 L 73.875 32.578125 L 66.890625 37.59375 L 69.234375 68.484375 L 76.6875 74.015625 L 78.046875 86.390625 Z M 48 40.03125 L 63.609375 40.03125 L 63.328125 35.90625 L 32.671875 35.90625 L 32.390625 40.03125 Z M 48 70.359375 L 65.859375 70.359375 L 65.578125 66.28125 L 30.421875 66.28125 L 30.140625 70.359375 Z M 48 70.359375 "/>
</g>
</svg>
