<?xml version="1.0" encoding="UTF-8"?>
<svg xmlns="http://www.w3.org/2000/svg" xmlns:xlink="http://www.w3.org/1999/xlink" width="96px" height="px" viewBox="0 0 96 96" version="1.1">
<g id="surface1">
<path style=" stroke:none;fill-rule:nonzero;fill:rgb(97.647059%,97.647059%,97.647059%);fill-opacity:1;" d="M 44.445312 17.171875 L 44.492188 10.652344 L 51.4375 10.328125 L 51.449219 17.1875 Z M 26.453125 40.296875 C 31.769531 27.816406 47.828125 19.542969 47.828125 19.542969 C 47.828125 19.542969 66.191406 27.808594 70.140625 43.101562 C 69.722656 52.886719 61.523438 58.632812 61.523438 58.632812 L 62.792969 69.015625 L 32.183594 69.296875 L 34.339844 58.351562 C 34.339844 58.351562 23.570312 50.34375 26.453125 40.296875 Z M 21.683594 77.324219 C 29.882812 77.605469 38.335938 78.402344 41.617188 70.671875 L 45.945312 70.707031 C 45.945312 70.707031 45.949219 79.613281 41.824219 82.222656 C 34.195312 87.046875 12.535156 84.007812 12.535156 84.007812 C 12.535156 84.007812 11.800781 77.160156 21.683594 77.324219 Z M 51.273438 79.082031 L 49.585938 70.414062 L 54.363281 70.660156 C 54.363281 70.660156 55.421875 77.820312 69.132812 76.796875 C 87.003906 75.988281 84.035156 83.960938 84.035156 83.960938 L 61.386719 84.195312 Z M 51.273438 79.082031 "/>
<path style=" stroke:none;fill-rule:nonzero;fill:rgb(6.27451%,6.27451%,6.27451%);fill-opacity:1;" d="M 48 16.6875 C 50.0625 16.6875 51.0625 15.65625 51 13.59375 C 51.03125 11.875 50.03125 11.015625 48 11.015625 C 45.9375 11.015625 44.9375 11.875 45 13.59375 C 44.90625 15.65625 45.90625 16.6875 48 16.6875 Z M 48 73.125 C 48 76.6875 46.421875 79.789062 43.265625 82.429688 C 40.109375 85.070312 36.625 86.390625 32.8125 86.390625 L 9.609375 86.390625 C 9.609375 82.734375 10.625 79.9375 12.65625 78 C 14.6875 76.0625 16.90625 75.09375 19.3125 75.09375 L 31.03125 75.09375 C 32.625 75.09375 34 74.984375 35.15625 74.765625 C 36.3125 74.546875 37.421875 73.609375 38.484375 71.953125 C 38.859375 71.328125 39.015625 71.078125 38.953125 71.203125 L 42.515625 71.203125 C 42.296875 71.859375 42.25 72.0625 42.375 71.8125 C 40.96875 75.09375 39.265625 77.039062 37.265625 77.648438 C 35.265625 78.257812 32.984375 78.5625 30.421875 78.5625 L 19.171875 78.5625 C 17.546875 78.5625 16.203125 79.1875 15.140625 80.4375 C 14.078125 81.6875 13.546875 82.515625 13.546875 82.921875 L 33.421875 82.921875 C 35.484375 82.921875 37.960938 81.90625 40.851562 79.875 C 43.742188 77.84375 45.203125 74.953125 45.234375 71.203125 L 29.25 71.203125 C 31.34375 67.578125 32.46875 64 32.625 60.46875 C 29.0625 56.75 26.53125 53.257812 25.03125 49.992188 C 23.53125 46.726562 23.4375 43.234375 24.75 39.515625 C 25.78125 36.515625 27.625 33.554688 30.28125 30.632812 C 32.9375 27.710938 37.8125 23.859375 44.90625 19.078125 C 44.375 18.734375 43.65625 18.171875 42.75 17.390625 C 41.84375 16.609375 41.390625 15.375 41.390625 13.6875 C 41.390625 11.875 42.03125 10.375 43.3125 9.1875 C 44.59375 8 46.15625 7.40625 48 7.40625 C 49.8125 7.40625 51.367188 8 52.664062 9.1875 C 53.960938 10.375 54.609375 11.875 54.609375 13.6875 C 54.609375 15.375 54.148438 16.609375 53.226562 17.390625 C 52.304688 18.171875 51.59375 18.734375 51.09375 19.078125 C 58.15625 23.859375 63.015625 27.710938 65.671875 30.632812 C 68.328125 33.554688 70.1875 36.515625 71.25 39.515625 C 72.5625 43.234375 72.46875 46.726562 70.96875 49.992188 C 69.46875 53.257812 66.9375 56.75 63.375 60.46875 C 63.5 64 64.625 67.578125 66.75 71.203125 L 50.765625 71.203125 C 50.765625 74.953125 52.21875 77.84375 55.125 79.875 C 58.03125 81.90625 60.515625 82.921875 62.578125 82.921875 L 82.453125 82.921875 C 82.453125 82.515625 81.914062 81.6875 80.835938 80.4375 C 79.757812 79.1875 78.421875 78.5625 76.828125 78.5625 L 65.578125 78.5625 C 62.984375 78.5625 60.695312 78.257812 58.710938 77.648438 C 56.726562 77.039062 55.03125 75.09375 53.625 71.8125 C 53.75 72.0625 53.703125 71.859375 53.484375 71.203125 L 57.046875 71.203125 C 56.984375 71.078125 57.140625 71.328125 57.515625 71.953125 C 58.546875 73.609375 59.640625 74.546875 60.796875 74.765625 C 61.953125 74.984375 63.34375 75.09375 64.96875 75.09375 L 76.6875 75.09375 C 79.0625 75.09375 81.273438 76.0625 83.320312 78 C 85.367188 79.9375 86.390625 82.734375 86.390625 86.390625 L 63.1875 86.390625 C 59.34375 86.390625 55.851562 85.070312 52.710938 82.429688 C 49.570312 79.789062 48 76.6875 48 73.125 Z M 48 67.78125 L 61.265625 67.78125 C 60.390625 65.15625 59.9375 62.75 59.90625 60.5625 C 56.15625 59.28125 52.1875 58.6875 48 58.78125 C 43.78125 58.6875 39.8125 59.28125 36.09375 60.5625 C 36.03125 62.75 35.578125 65.15625 34.734375 67.78125 Z M 48 55.265625 C 52.96875 55.234375 57.421875 55.890625 61.359375 57.234375 C 67.265625 51.609375 69.484375 46.203125 68.015625 41.015625 C 66.140625 34.984375 59.46875 28.25 48 20.8125 C 36.5 28.25 29.828125 34.984375 27.984375 41.015625 C 26.484375 46.203125 28.703125 51.609375 34.640625 57.234375 C 38.546875 55.890625 43 55.234375 48 55.265625 Z M 45.796875 38.34375 L 45.796875 33.46875 L 50.203125 33.46875 L 50.203125 38.34375 L 54.65625 38.34375 L 54.65625 42.515625 L 50.203125 42.515625 L 50.203125 50.25 L 45.796875 50.25 L 45.796875 42.515625 L 41.34375 42.515625 L 41.34375 38.34375 Z M 45.796875 38.34375 "/>
</g>
</svg>
