<?xml version="1.0" encoding="UTF-8"?>
<svg xmlns="http://www.w3.org/2000/svg" xmlns:xlink="http://www.w3.org/1999/xlink" width="96px" height="px" viewBox="0 0 96 96" version="1.1">
<g id="surface1">
<path style=" stroke:none;fill-rule:nonzero;fill:rgb(97.647059%,97.647059%,97.647059%);fill-opacity:1;" d="M 23.515625 84.890625 L 25.78125 68.277344 L 13.589844 55.660156 C 13.589844 55.660156 5.792969 42.152344 14.992188 33.113281 C 27.289062 21.035156 38.722656 34.085938 38.722656 34.085938 L 47.890625 26.320312 L 56.519531 34.085938 C 56.519531 34.085938 66.660156 23.191406 76.691406 30.527344 C 86.722656 37.859375 88.664062 45.410156 82.191406 55.441406 C 75.722656 65.472656 70.4375 68.601562 70.4375 68.601562 L 73.023438 84.890625 Z M 23.515625 84.890625 "/>
<path style=" stroke:none;fill-rule:nonzero;fill:rgb(6.27451%,6.27451%,6.27451%);fill-opacity:1;" d="M 45.796875 13.96875 L 45.796875 9.515625 L 50.203125 9.515625 L 50.203125 13.96875 L 55.21875 13.96875 L 55.21875 18.421875 L 50.203125 18.421875 L 50.203125 25.59375 C 48.703125 25.09375 47.234375 25.09375 45.796875 25.59375 L 45.796875 18.421875 L 40.78125 18.421875 L 40.78125 13.96875 Z M 48 28.6875 C 46.53125 28.6875 44.40625 30.578125 41.625 34.359375 C 40.65625 33.234375 39.875 32.375 39.28125 31.78125 C 42.1875 27.40625 45.09375 25.21875 48 25.21875 C 50.875 25.21875 53.78125 27.40625 56.71875 31.78125 C 56.09375 32.375 55.3125 33.234375 54.375 34.359375 C 51.5625 30.578125 49.4375 28.6875 48 28.6875 Z M 27.046875 71.203125 L 25.828125 78.515625 L 32.625 74.578125 Z M 46.265625 61.546875 C 46.234375 56.953125 45.664062 52.664062 44.554688 48.679688 C 43.445312 44.695312 42.1875 41.671875 40.78125 39.609375 C 39.375 36.859375 37.320312 34.46875 34.617188 32.4375 C 31.914062 30.40625 29.28125 29.390625 26.71875 29.390625 C 23.5 29.390625 20.25 30.84375 16.96875 33.75 C 13.6875 36.65625 12.046875 40.234375 12.046875 44.484375 C 12.046875 47.890625 13.398438 51.578125 16.101562 55.546875 C 18.804688 59.515625 21.96875 63 25.59375 66 C 32.21875 63.25 39.109375 61.765625 46.265625 61.546875 Z M 48 86.390625 L 21 86.390625 L 23.859375 69.28125 C 13.703125 60.53125 8.609375 52.171875 8.578125 44.203125 C 8.546875 39.234375 10.5 34.945312 14.4375 31.335938 C 18.375 27.726562 22.546875 25.921875 26.953125 25.921875 C 29.390625 25.921875 31.867188 26.65625 34.382812 28.125 C 36.898438 29.59375 39.125 31.453125 41.0625 33.703125 C 42.96875 36.015625 44.507812 38.585938 45.679688 41.414062 C 46.851562 44.242188 47.625 46.59375 48 48.46875 C 48.375 46.59375 49.140625 44.242188 50.296875 41.414062 C 51.453125 38.585938 53 36.015625 54.9375 33.703125 C 56.84375 31.453125 59.0625 29.59375 61.59375 28.125 C 64.125 26.65625 66.609375 25.921875 69.046875 25.921875 C 73.421875 25.921875 77.578125 27.726562 81.515625 31.335938 C 85.453125 34.945312 87.421875 39.234375 87.421875 44.203125 C 87.359375 52.171875 82.265625 60.53125 72.140625 69.28125 L 75 86.390625 Z M 48 82.921875 L 70.921875 82.921875 L 68.578125 68.953125 C 61.828125 66.328125 54.96875 65.015625 48 65.015625 C 41.03125 65.015625 34.171875 66.328125 27.421875 68.953125 L 25.078125 82.921875 Z M 68.953125 71.203125 L 70.171875 78.515625 L 63.375 74.578125 Z M 49.734375 61.546875 C 56.890625 61.765625 63.78125 63.25 70.40625 66 C 74 63 77.15625 59.515625 79.875 55.546875 C 82.59375 51.578125 83.953125 47.890625 83.953125 44.484375 C 83.953125 40.234375 82.304688 36.65625 79.007812 33.75 C 75.710938 30.84375 72.46875 29.390625 69.28125 29.390625 C 66.6875 29.390625 64.039062 30.40625 61.335938 32.4375 C 58.632812 34.46875 56.59375 36.859375 55.21875 39.609375 C 53.78125 41.671875 52.507812 44.695312 51.398438 48.679688 C 50.289062 52.664062 49.734375 56.953125 49.734375 61.546875 Z M 41.484375 72.46875 L 48.09375 68.53125 L 54.515625 72.5625 L 47.90625 76.5 Z M 41.484375 72.46875 "/>
</g>
</svg>
