<?xml version="1.0" encoding="UTF-8"?>
<svg xmlns="http://www.w3.org/2000/svg" xmlns:xlink="http://www.w3.org/1999/xlink" width="96px" height="px" viewBox="0 0 96 96" version="1.1">
<g id="surface1">
<path style=" stroke:none;fill-rule:nonzero;fill:rgb(97.647059%,97.647059%,97.647059%);fill-opacity:1;" d="M 16.503906 40.339844 L 53.394531 13.699219 L 57.816406 20.601562 C 57.816406 20.601562 73.5625 25.457031 76.476562 38.832031 C 79.390625 52.207031 78.847656 84.457031 78.847656 84.457031 L 27.828125 84.890625 C 27.828125 84.890625 26.101562 71.300781 36.457031 63.316406 C 46.8125 55.335938 46.8125 53.394531 46.8125 53.394531 C 46.8125 53.394531 36.242188 50.050781 33.007812 52.636719 C 29.769531 55.226562 27.503906 59.109375 27.503906 59.109375 L 21.464844 55.980469 L 24.917969 51.992188 L 20.816406 47.460938 L 16.394531 50.050781 Z M 16.503906 40.339844 "/>
<path style=" stroke:none;fill-rule:nonzero;fill:rgb(6.27451%,6.27451%,6.27451%);fill-opacity:1;" d="M 53.953125 8.34375 L 48.5625 15.5625 C 45.09375 17.90625 41.648438 20.148438 38.226562 22.289062 C 34.804688 24.429688 33 26.109375 32.8125 27.328125 L 14.25 39.65625 L 14.8125 53.578125 L 20.53125 49.546875 L 22.921875 51.890625 L 17.53125 55.734375 L 27.703125 61.40625 L 30.328125 56.625 C 32.078125 53.4375 36.640625 52.5 44.015625 53.8125 C 43.453125 54.75 42.59375 56.078125 41.4375 57.796875 C 40.28125 59.515625 38.484375 60.625 36.046875 61.125 C 31.828125 64.6875 28.96875 68.398438 27.46875 72.257812 C 25.96875 76.117188 25.359375 80.828125 25.640625 86.390625 L 83.859375 86.390625 C 82.765625 83.828125 81.867188 80.851562 81.164062 77.460938 C 80.460938 74.070312 80.390625 70.375 80.953125 66.375 C 82.296875 55.1875 81.554688 45.757812 78.726562 38.085938 C 75.898438 30.414062 69.140625 23.890625 58.453125 18.515625 Z M 53.15625 15.140625 L 55.921875 21.375 C 61.515625 23.875 65.609375 26.8125 68.203125 30.1875 C 70.796875 33.5625 72.890625 37.21875 74.484375 41.15625 C 75.734375 45.6875 76.367188 49.632812 76.382812 52.992188 C 76.398438 56.351562 76.257812 59.554688 75.960938 62.601562 C 75.664062 65.648438 75.46875 68.757812 75.375 71.929688 C 75.28125 75.101562 75.78125 78.765625 76.875 82.921875 L 29.109375 82.921875 C 28.921875 78.984375 29.671875 75.492188 31.359375 72.445312 C 33.046875 69.398438 35.328125 66.640625 38.203125 64.171875 C 41.859375 63.140625 44.234375 61.539062 45.328125 59.367188 C 46.410156 57.222656 47.808594 55.175781 49.53125 53.230469 C 50.175781 52.773438 50.828125 52.527344 51.304688 52.523438 C 51.792969 52.519531 52.3125 52.546875 52.875 52.453125 C 55.3125 52.109375 57.320312 50.78125 58.898438 48.46875 C 60.476562 46.15625 61.296875 43.578125 61.359375 40.734375 L 60.46875 37.59375 C 58.75 45.0625 55.8125 49.078125 51.65625 49.640625 C 51 49.734375 50.296875 49.820312 49.546875 49.898438 C 48.808594 49.976562 47.996094 50.390625 47.109375 51.148438 C 45.183594 49.980469 43.027344 49.492188 40.640625 49.6875 C 37.171875 49.96875 34.59375 50.390625 32.90625 50.953125 L 27.820312 54.375 L 26.015625 56.484375 L 23.8125 55.171875 L 27.46875 52.125 L 21 45.375 L 18 47.296875 L 17.8125 41.4375 L 34.96875 30.140625 C 35.65625 28.546875 37.703125 26.671875 41.109375 24.515625 C 44.515625 22.359375 47.765625 20.3125 50.859375 18.375 Z M 45.019531 26.433594 C 44.707031 26.433594 44.421875 26.546875 44.15625 26.765625 L 38.71875 31.453125 L 48.65625 31.546875 C 49.71875 31.546875 49.46875 30.554688 47.90625 28.570312 C 46.785156 27.144531 45.820312 26.433594 45.019531 26.433594 Z M 23.53125 40.6875 L 21.984375 40.875 L 20.4375 43.5 L 23.109375 44.71875 L 25.265625 42.140625 Z M 23.53125 40.6875 "/>
</g>
</svg>
