<?xml version="1.0" encoding="UTF-8"?>
<svg xmlns="http://www.w3.org/2000/svg" xmlns:xlink="http://www.w3.org/1999/xlink" width="96px" height="px" viewBox="0 0 96 96" version="1.1">
<g id="surface1">
<path style=" stroke:none;fill-rule:nonzero;fill:rgb(97.647059%,97.647059%,97.647059%);fill-opacity:1;" d="M 34.410156 45.976562 L 43.597656 36.933594 C 43.597656 36.933594 34.734375 33.109375 39.875 23.441406 C 43.59375 16.453125 54.078125 18.082031 56.808594 25.796875 C 59.773438 34.179688 51.519531 37.046875 51.519531 37.046875 L 62.105469 46.253906 Z M 23.375 83.429688 C 23.375 83.429688 23.007812 78.417969 25.757812 76.199219 C 34.921875 68.085938 41.566406 58.132812 43.144531 48.125 L 52.949219 48.214844 C 54.515625 57.898438 61.503906 69.171875 68 74.546875 C 72.769531 77.316406 72.640625 83.847656 72.640625 83.847656 Z M 23.375 83.429688 "/>
<path style=" stroke:none;fill-rule:nonzero;fill:rgb(6.27451%,6.27451%,6.27451%);fill-opacity:1;" d="M 24.375 82.921875 L 71.625 82.921875 C 71.875 79.890625 69.8125 77.046875 65.4375 74.390625 C 61.3125 71.234375 58.242188 67.492188 56.226562 63.164062 C 54.210938 58.835938 52.96875 54.015625 52.5 48.703125 L 43.5 48.703125 C 43.03125 54.015625 41.789062 58.835938 39.773438 63.164062 C 37.757812 67.492188 34.6875 71.234375 30.5625 74.390625 C 26.15625 77.046875 24.09375 79.890625 24.375 82.921875 Z M 48 86.390625 L 20.90625 86.390625 L 20.90625 82.921875 C 20.78125 80.421875 21.429688 78.28125 22.851562 76.5 C 24.273438 74.71875 26.234375 73.03125 28.734375 71.4375 C 32.390625 68.59375 35.070312 65.195312 36.773438 61.242188 C 38.476562 57.289062 39.703125 53.109375 40.453125 48.703125 L 27 48.703125 L 40.3125 37.5 C 37.625 35.1875 36.28125 32.25 36.28125 28.6875 C 36.28125 25.46875 37.421875 22.703125 39.703125 20.390625 C 41.984375 18.078125 44.75 16.921875 48 16.921875 C 51.21875 16.921875 53.976562 18.078125 56.273438 20.390625 C 58.570312 22.703125 59.71875 25.46875 59.71875 28.6875 C 59.71875 32.25 58.375 35.1875 55.6875 37.5 L 69 48.703125 L 55.546875 48.703125 C 56.265625 53.109375 57.484375 57.289062 59.203125 61.242188 C 60.921875 65.195312 63.609375 68.59375 67.265625 71.4375 C 69.734375 73.03125 71.679688 74.71875 73.101562 76.5 C 74.523438 78.28125 75.1875 80.421875 75.09375 82.921875 L 75.09375 86.390625 Z M 35.4375 45.65625 L 60.5625 45.65625 L 50.015625 36.703125 C 54.203125 35.734375 56.296875 33.0625 56.296875 28.6875 C 56.296875 26.3125 55.476562 24.335938 53.835938 22.757812 C 52.195312 21.179688 50.25 20.390625 48 20.390625 C 45.71875 20.390625 43.765625 21.179688 42.140625 22.757812 C 40.515625 24.335938 39.703125 26.3125 39.703125 28.6875 C 39.703125 33.0625 41.796875 35.734375 45.984375 36.703125 Z M 35.4375 45.65625 "/>
</g>
</svg>
