<?xml version="1.0" encoding="UTF-8"?>
<svg xmlns="http://www.w3.org/2000/svg" xmlns:xlink="http://www.w3.org/1999/xlink" width="96px" height="px" viewBox="0 0 96 96" version="1.1">
<g id="surface1">
<path style=" stroke:none;fill-rule:nonzero;fill:rgb(97.647059%,97.647059%,97.647059%);fill-opacity:1;" d="M 23.839844 85.105469 L 26.101562 68.386719 L 15.964844 42.390625 L 9.601562 41.421875 L 8.84375 35.488281 L 14.128906 33.4375 L 17.796875 36.890625 L 16.933594 41.527344 L 28.476562 50.804688 L 33.761719 24.160156 L 29.769531 20.0625 L 33.4375 14.992188 L 38.722656 17.042969 L 37.644531 24.59375 L 48.109375 46.8125 L 59.542969 23.839844 L 56.414062 18.875 L 60.726562 14.5625 L 65.691406 18.011719 L 62.667969 25.023438 L 67.523438 49.832031 L 79.710938 42.28125 L 78.957031 35.59375 L 85.105469 33.4375 L 87.800781 39.585938 L 78.09375 44.441406 L 69.898438 69.25 L 72.160156 83.703125 Z M 23.839844 85.105469 "/>
<path style=" stroke:none;fill-rule:nonzero;fill:rgb(6.27451%,6.27451%,6.27451%);fill-opacity:1;" d="M 48 82.921875 L 70.40625 82.921875 C 68.75 78.859375 68.078125 74.484375 68.390625 69.796875 C 65.265625 68.578125 61.9375 67.523438 58.40625 66.632812 C 54.875 65.742188 51.40625 65.296875 48 65.296875 C 44.5625 65.296875 41.078125 65.742188 37.546875 66.632812 C 34.015625 67.523438 30.703125 68.578125 27.609375 69.796875 C 27.890625 74.484375 27.21875 78.859375 25.59375 82.921875 Z M 48 61.828125 C 51.46875 61.828125 54.960938 62.242188 58.476562 63.070312 C 61.992188 63.898438 65.4375 64.953125 68.8125 66.234375 C 69.34375 62.953125 70.289062 59.632812 71.648438 56.273438 C 73.007812 52.914062 74.65625 49.59375 76.59375 46.3125 L 66.28125 53.578125 L 60.515625 25.40625 L 48 51.421875 L 35.484375 25.40625 L 29.71875 53.578125 L 19.40625 46.3125 C 21.3125 49.59375 22.945312 52.914062 24.304688 56.273438 C 25.664062 59.632812 26.625 62.953125 27.1875 66.234375 C 30.5625 64.953125 34.007812 63.898438 37.523438 63.070312 C 41.039062 62.242188 44.53125 61.828125 48 61.828125 Z M 48 86.390625 L 20.671875 86.390625 C 24.234375 79.171875 25.132812 72.039062 23.367188 64.992188 C 21.601562 57.945312 18.4375 50.921875 13.875 43.921875 C 13.5 43.984375 13.203125 44.015625 12.984375 44.015625 C 11.296875 44.015625 9.851562 43.414062 8.648438 42.210938 C 7.445312 41.007812 6.84375 39.5625 6.84375 37.875 C 6.84375 36.1875 7.445312 34.742188 8.648438 33.539062 C 9.851562 32.335938 11.296875 31.734375 12.984375 31.734375 C 14.671875 31.734375 16.117188 32.335938 17.320312 33.539062 C 18.523438 34.742188 19.125 36.1875 19.125 37.875 C 19.125 38.5 19.03125 39.09375 18.84375 39.65625 C 18.71875 40.09375 18.484375 40.609375 18.140625 41.203125 L 27.328125 47.71875 L 32.015625 24.9375 C 30.015625 23.96875 28.890625 22.359375 28.640625 20.109375 C 28.484375 18.734375 28.9375 17.3125 30 15.84375 C 31.0625 14.375 32.4375 13.546875 34.125 13.359375 C 35.8125 13.203125 37.3125 13.65625 38.625 14.71875 C 39.9375 15.78125 40.6875 17.15625 40.875 18.84375 C 41.09375 20.96875 40.375 22.75 38.71875 24.1875 L 48 43.5 L 57.28125 24.1875 C 55.59375 22.75 54.875 20.96875 55.125 18.84375 C 55.3125 17.15625 56.0625 15.78125 57.375 14.71875 C 58.6875 13.65625 60.1875 13.203125 61.875 13.359375 C 63.5625 13.546875 64.929688 14.375 65.976562 15.84375 C 67.023438 17.3125 67.484375 18.734375 67.359375 20.109375 C 67.078125 22.359375 65.953125 23.96875 63.984375 24.9375 L 68.671875 47.71875 L 77.859375 41.203125 C 77.484375 40.609375 77.25 40.09375 77.15625 39.65625 C 76.96875 39.09375 76.875 38.5 76.875 37.875 C 76.875 36.1875 77.476562 34.742188 78.679688 33.539062 C 79.882812 32.335938 81.328125 31.734375 83.015625 31.734375 C 84.703125 31.734375 86.148438 32.335938 87.351562 33.539062 C 88.554688 34.742188 89.15625 36.1875 89.15625 37.875 C 89.15625 39.5625 88.554688 41.007812 87.351562 42.210938 C 86.148438 43.414062 84.703125 44.015625 83.015625 44.015625 C 82.796875 44.015625 82.5 43.984375 82.125 43.921875 C 77.53125 50.921875 74.359375 57.945312 72.609375 64.992188 C 70.859375 72.039062 71.765625 79.171875 75.328125 86.390625 Z M 12.9375 34.96875 C 11 34.96875 10.03125 35.9375 10.03125 37.875 C 10.03125 39.8125 11 40.78125 12.9375 40.78125 C 14.90625 40.78125 15.890625 39.8125 15.890625 37.875 C 15.890625 35.9375 14.90625 34.96875 12.9375 34.96875 Z M 34.78125 16.5 C 32.84375 16.5 31.875 17.46875 31.875 19.40625 C 31.875 21.34375 32.84375 22.3125 34.78125 22.3125 C 36.71875 22.3125 37.6875 21.34375 37.6875 19.40625 C 37.6875 17.46875 36.71875 16.5 34.78125 16.5 Z M 27.65625 71.203125 L 33.234375 74.578125 L 26.953125 78.609375 C 27.546875 75.921875 27.78125 73.453125 27.65625 71.203125 Z M 83.0625 34.96875 C 81.09375 34.96875 80.109375 35.9375 80.109375 37.875 C 80.109375 39.8125 81.09375 40.78125 83.0625 40.78125 C 85 40.78125 85.96875 39.8125 85.96875 37.875 C 85.96875 35.9375 85 34.96875 83.0625 34.96875 Z M 61.21875 16.5 C 59.28125 16.5 58.3125 17.46875 58.3125 19.40625 C 58.3125 21.34375 59.28125 22.3125 61.21875 22.3125 C 63.15625 22.3125 64.125 21.34375 64.125 19.40625 C 64.125 17.46875 63.15625 16.5 61.21875 16.5 Z M 68.34375 71.203125 L 62.765625 74.578125 L 69.046875 78.609375 C 68.421875 75.921875 68.1875 73.453125 68.34375 71.203125 Z M 41.484375 73.40625 L 48 69.515625 L 54.515625 73.546875 L 48 77.484375 Z M 41.484375 73.40625 "/>
</g>
</svg>
