<?xml version="1.0" encoding="UTF-8"?>
<svg xmlns="http://www.w3.org/2000/svg" xmlns:xlink="http://www.w3.org/1999/xlink" width="96px" height="px" viewBox="0 0 96 96" version="1.1">
<g id="surface1">
<path style=" stroke:none;fill-rule:nonzero;fill:rgb(97.647059%,97.647059%,97.647059%);fill-opacity:1;" d="M 20.386719 84.566406 L 21.140625 74.644531 L 28.261719 69.25 L 30.632812 36.996094 L 23.730469 31.605469 L 23.40625 18.660156 L 33.222656 18.554688 L 33.4375 25.023438 L 42.714844 25.132812 L 43.039062 18.554688 L 52.960938 18.445312 L 53.609375 25.242188 L 62.667969 25.023438 L 62.886719 18.554688 L 72.484375 18.554688 L 72.160156 31.929688 L 65.367188 36.890625 L 67.308594 69.355469 L 75.398438 75.183594 L 76.261719 84.890625 Z M 20.386719 84.566406 "/>
<path style=" stroke:none;fill-rule:nonzero;fill:rgb(6.27451%,6.27451%,6.27451%);fill-opacity:1;" d="M 48 70.359375 L 30.140625 70.359375 L 30.375 66.890625 L 65.625 66.890625 L 65.859375 70.359375 Z M 48 39.375 L 32.4375 39.375 L 32.671875 35.90625 L 63.328125 35.90625 L 63.5625 39.375 Z M 48 86.390625 L 17.953125 86.390625 L 19.3125 74.015625 L 26.765625 68.484375 L 29.109375 37.59375 L 22.125 32.578125 L 21.328125 16.59375 L 34.875 16.59375 L 34.875 23.484375 L 41.296875 23.484375 L 41.296875 16.59375 L 54.703125 16.59375 L 54.703125 23.484375 L 61.125 23.484375 L 61.125 16.59375 L 74.671875 16.59375 L 73.875 32.578125 L 66.890625 37.59375 L 69.234375 68.484375 L 76.6875 74.015625 L 78.046875 86.390625 Z M 48 82.921875 L 74.109375 82.921875 L 73.40625 75.9375 L 65.859375 70.359375 L 63.328125 35.90625 L 70.453125 30.796875 L 71.0625 20.015625 L 64.59375 20.015625 L 64.59375 26.953125 L 51.234375 26.953125 L 51.234375 20.015625 L 44.765625 20.015625 L 44.765625 26.953125 L 31.40625 26.953125 L 31.40625 20.015625 L 24.9375 20.015625 L 25.546875 30.796875 L 32.671875 35.90625 L 30.140625 70.359375 L 22.59375 75.9375 L 21.890625 82.921875 Z M 48 82.921875 "/>
</g>
</svg>
